<svg width="263" height="238" fill="none" xmlns="http://www.w3.org/2000/svg"><path d="M159.554 101.363s-13.066 25.955-26.349 43.887c-5.284 7.13-10.594 12.985-15.14 15.438-4.437 2.386-8.205 6.1-11.318 10.22-8.055 10.653-11.782 24.004-11.782 24.004l-33.953-50.99s1.16-49.851 5.229-58.187c5.939-12.158 8.805-36.704 11.1-41.597 1.692-3.633 6.525-22.35 6.989-23.733.205-.597 1.816-1.505 3.904-1.505 1.68 0 4.52 1.613 5.243 4.92 3.631 16.712-.737 27.732-.696 28.233 1.283 12.85-2.567 22.378.136 24.899.096.095.287.054.546-.122 4.683-2.982 33.735-45.026 37.312-45.934 3.795-.976 28.779 70.467 28.779 70.467z" fill="#FFDB7D"/><path d="M105.191 184.801s-.465 22.662-1.789 53.185H17.776c19.563-41.434 36.588-76.322 36.588-76.322s48.765 1.477 50.827 23.137z" fill="#D2E3FC"/><path d="M189.429 13.08l-10.512 15.303-10.321 15.018c-.628.759-1.352 1.016-2.144.935-2.471-.23-5.542-3.781-7.932-5.747l-.245-.203a7.35 7.35 0 01-.983-10.382L173.06 9.082l4.683-5.611C180.35.34 185.047-.094 188.2 2.495l.246.203c3.154 2.576 3.59 7.252.983 10.383z" fill="#FDCD51"/><path d="M178.721 28.808L168.4 43.826c-.628.76-1.351 1.017-2.143.935l6.607-35.24c.028.19 1.147 16.007 5.857 19.287zM133.205 145.25c-5.284 7.13-10.594 12.985-15.14 15.438-4.437 2.386-8.205 6.1-11.318 10.22-3.577-1.654-7.659-3.605-11.645-5.516-4.86-2.345-5.038-9.19-.287-11.725.04-.027.096-.054.136-.081 4.451-2.535 9.025-11.467 9.025-11.467l29.229 3.131z" fill="#FDCD51"/><path d="M84.112 21.164l-2.758 11.033s2.403.976 3.945.217c1.543-.76 2.826-10.654-1.187-11.25z" fill="#FCE29E"/><path d="M163.226 150.455h-59.155c-5.816 0-10.58-4.73-10.58-10.504V10.863c0-5.774 4.764-10.505 10.58-10.505h59.155c5.816 0 10.58 4.73 10.58 10.505V139.95c0 5.774-4.764 10.504-10.58 10.504z" fill="#2B478B"/><path d="M169.834 11.852v126.093c0 4.283-3.495 7.779-7.782 7.779h-56.807c-4.273 0-7.782-3.496-7.782-7.779V11.852c0-4.283 3.495-7.78 7.782-7.78h56.807c4.273 0 7.782 3.51 7.782 7.78z" fill="#C0D8FB"/><path d="M162.052 4.072l-56.097 141.666h-.696c-4.273 0-7.782-3.497-7.782-7.78V11.852c0-4.283 3.495-7.78 7.782-7.78h56.793z" fill="#CBE1FD"/><path d="M145.519 8.762h-23.741c-1.939 0-3.522-1.572-3.522-3.497v-.542c0-1.925 1.583-3.497 3.522-3.497h23.741c1.939 0 3.522 1.572 3.522 3.497v.542c0 1.938-1.583 3.497-3.522 3.497z" fill="#2B478B"/><path d="M184.005 71.286l-1.57.597-10.54 3.971a4.8 4.8 0 01-.751.23c-3.495.895-7.208-.948-8.519-4.364l-.15-.406c-1.406-3.66.464-7.808 4.164-9.204l9.83-3.713.709-.271 1.57-.597c3.687-1.396 7.864.461 9.257 4.134l.15.407c1.42 3.686-.451 7.834-4.15 9.216z" fill="#FDCD51"/><path d="M175.445 71.53c-1.762.665-4.942 1.844-6.649 2.074-.478.068-1.365-.19-2.198-1.098-.491-.542-.969-1.314-1.324-2.372-.164-.501-.301-1.003-.355-1.518a6.161 6.161 0 01.054-1.802 1.785 1.785 0 011.011-1.288h.013c1.816-.854 4.26-1.911 6.39-2.494 1.474-.406 2.976.244 3.44 1.532l.218.596 1.133 3.077c.465 1.287-.3 2.751-1.733 3.293z" fill="#FCE29E"/><path d="M175.445 71.53c-1.761.665-4.942 1.844-6.649 2.074-.478.068-1.365-.19-2.198-1.098-.082-.203-.164-.42-.246-.65-.163-.502-.3-1.003-.355-1.518a6.162 6.162 0 01.055-1.803 1.783 1.783 0 011.01-1.288h.014c1.816-.854 4.259-1.91 6.389-2.494.942-.257 1.898-.081 2.594.407l1.133 3.077c.451 1.287-.314 2.751-1.747 3.293zm3.781 14.476l-8.136 2.196c-2.472.664-5.038-.786-5.721-3.24l-.245-.908c-.669-2.453.791-5.001 3.262-5.679l8.137-2.196c2.471-.664 5.038.787 5.72 3.24l.246.908a4.635 4.635 0 01-3.263 5.679z" fill="#FDCD51"/><path d="M174.83 85.613c-1.488.393-4.191 1.098-5.611 1.165-.519.028-1.542-.406-2.211-1.748a5.519 5.519 0 01-.41-1.139c-.096-.393-.177-.786-.177-1.192a4.673 4.673 0 01.177-1.383c.123-.406.464-.759.915-.922h.013c1.543-.542 3.632-1.192 5.434-1.504 1.242-.217 2.416.38 2.717 1.396l.204.732.628 2.182c.274 1.017-.464 2.087-1.679 2.413z" fill="#FDCD51"/><path d="M174.83 85.613c-1.488.393-4.191 1.097-5.611 1.165-.519.027-1.543-.406-2.212-1.748a5.078 5.078 0 01-.163-1.112 4.73 4.73 0 01.177-1.382c.123-.407.464-.76.915-.922h.013c1.543-.542 3.632-1.193 5.434-1.504 1.024-.176 2.021.203 2.485.908l.628 2.182c.286 1.017-.451 2.087-1.666 2.413z" fill="#FCE29E"/><path d="M46.022 178.851s16.738 15.912 28.014 22.052l8.547-6.018v8.878s16.805 2.955 22.102 0v-24.194l-47.181-23.475-11.482 22.757z" fill="#C1DAFF"/><path d="M108.249 201.852c-6.499 1.328-20.506-3.741-20.506-3.741l2.266-21.673-15.836 18c-8.055-2.982-20.656-10.748-28.137-15.574-3.727-2.412-6.185-4.093-6.185-4.093 10.567-16.875 21.188-32.665 21.188-32.665 3.113 6.194 10.499 11.575 18.5 15.872 13.296 7.156 28.314 11.331 28.314 11.331-.014 12.876.396 32.543.396 32.543z" fill="#DCEAFF"/><path d="M183.768 55.887a.678.678 0 01-.178.054l-10.662 2.71c-4.683 1.194-9.529-1.328-10.771-5.597l-.628-2.182c-1.188-4.107 1.365-8.39 5.72-9.786l3.522-.895 7.14-1.816c4.683-1.193 9.529 1.328 10.772 5.598l.628 2.182c1.174 4.053-1.297 8.282-5.543 9.732z" fill="#FDCD51"/><path d="M178.894 52.932l-5.174 2.318c-.014 0-.014 0-.027.013a5.15 5.15 0 01-.628.122 1.686 1.686 0 01-.26.028h-.109a.812.812 0 01-.71-1.152 4.99 4.99 0 00.287-3.484l-.123-.447v-.014l-.396-1.464a5.44 5.44 0 00-1.884-2.846l-.328-.244c-1.023-.705-.764-2.304.437-2.63.014 0 .028 0 .028-.013l5.679-.854c1.406-.38 2.758.691 3.14 2.087l.45 1.668.97 3.55c.382 1.41.041 2.983-1.352 3.362z" fill="#FDCD51"/><path d="M178.894 52.932l-5.174 2.318c-.014 0-.014 0-.027.013-.123.028-.505.082-.997.163a.812.812 0 01-.71-1.152 4.99 4.99 0 00.287-3.483l-.123-.448v-.013l-.396-1.464a5.435 5.435 0 00-1.884-2.846c.178-.272.451-.475.819-.57.014 0 .028 0 .028-.013l5.679-.854c1.188-.325 2.334.393 2.894 1.45l.969 3.551c.369 1.396.028 2.969-1.365 3.348z" fill="#FCE29E"/><path d="M93.49 110.864s-2.32-20.155-4.463-24.085c-2.144-3.931-3.96-11.806-.656-17.648 3.29-5.841 4.437-17.091 4.437-17.091 1.283 12.849-2.567 22.377.137 24.898.095.095.286.055.546-.122v34.048z" fill="#FDCD51"/><path d="M64.67 78.036h80.767c2.799 0 5.079-2.25 5.079-5.042v-32.11c0-2.778-2.266-5.041-5.079-5.041H64.671c-2.799 0-5.079 2.25-5.079 5.042v32.11c0 2.791 2.28 5.041 5.079 5.041z" fill="#699DEE"/><path d="M145.997 30.503h-31.605c-2.348 0-4.246-1.884-4.246-4.216v-5.95c0-2.331 1.898-4.215 4.246-4.215h31.605c2.348 0 4.246 1.884 4.246 4.215v5.95c0 2.332-1.898 4.216-4.246 4.216zm-1.379 105.463h-36.451c-2.813 0-5.079-2.264-5.079-5.042v-7.645c0-2.792 2.28-5.042 5.079-5.042h36.437c2.813 0 5.079 2.264 5.079 5.042v7.645c.014 2.778-2.266 5.042-5.065 5.042z" fill="#9ABFF6"/><path d="M158.775 110.864h-34.43c-3.359 0-6.089-2.711-6.089-6.045V91.441c0-3.334 2.73-6.045 6.089-6.045h34.43c3.359 0 6.089 2.71 6.089 6.045v13.378c.014 3.334-2.717 6.045-6.089 6.045z" fill="#FDCD51"/><path d="M256.115 238h-62.813c-3.017-2.006-18.649-12.592-25.12-20.494-1.366-1.667-6.39-16.102-10.239-27.799-2.403-7.319-4.369-13.567-4.697-15.004-.109-.502-.191-1.491-.232-2.833v-.013c-.164-4.785.055-14.029.287-21.362v-.135c.014-.325.027-.637.027-.949v-.108c.041-1.274.082-2.481.123-3.565a507.6 507.6 0 01.218-5.584l.014-.38c.096-.054 3.126-1.653 7.154 1.234.969.705 1.87 2.385 2.703 4.581.532 1.41 1.024 3.022 1.474 4.717 1.762 6.533 3.031 14.353 3.7 16.441 1.092 3.388 13.925 18.257 14.731 19.179l.041.04v-23.489l-9.693-25.752-3.987-10.572-1.993-5.314s-3.072-5.001-5.638-11.019c-1.133-2.629-2.157-5.462-2.799-8.146a24.38 24.38 0 01-.382-1.897c-.382-2.278-.41-4.378.123-6.086.942-3.05 3.044-3.633 4.669-3.565a3 3 0 01.491.04c.164.014.314.055.464.096a3.297 3.297 0 011.857 1.314s1.365 1.776 3.208 4.162c1.215 1.572 2.622 3.401 3.987 5.177 2.416 3.158 4.655 6.099 5.283 6.953 3.331 4.663 12.314 19.857 12.314 19.857l10.513.434a6.992 6.992 0 014.464 1.856c3.741 3.47 11.795 10.966 12.792 12.077 0 .366 6.266 3.361 11.099 6.018 3.454 1.45 10.035 6.601 10.035 6.601 1.365 1.193 2.402 2.385 2.921 3.524 2.253 4.866 8.369 47.222 11.29 68.163.956 6.736 1.57 11.249 1.611 11.602z" fill="#FFDB7D"/><path d="M191.404 127.725s9.734 15.777 11.031 16.495c1.283.705 6.307 1.708 6.881 0 .559-1.708-17.912-16.495-17.912-16.495zm48.943 27.04c-.014-.013-.027-.027-.055-.041 0 0-6.58-5.15-10.034-6.6-4.437-2.44-10.089-5.164-10.976-5.883 1.037 1.166 8.287 9.325 11.072 9.935 2.457.542 8.027 2.047 9.993 2.589zm-56.848 31.201v-23.489s5.625 9.339 6.048 14.449c.437 5.123-2.334 13.418-6.048 9.04z" fill="#FDCD51"/><path d="M163.117 99.79c-.819-1.396-2.294-3.93-2.799-5.354-.137-.406-.123-1.206.369-2.06.3-.515.764-1.043 1.474-1.518.328-.217.669-.42 1.038-.555a4.39 4.39 0 011.324-.244c.409 0 .833.23 1.133.65.969 1.41 2.212 3.334 3.044 5.07.588 1.206.396 2.588-.45 3.198l-.396.285-2.021 1.464c-.846.623-2.047.203-2.716-.936z" fill="#FFD3B6"/><path d="M163.117 99.79c-.819-1.396-2.294-3.93-2.799-5.353-.137-.407-.123-1.206.369-2.06.136-.109.273-.217.423-.312.327-.217.669-.42 1.037-.556.424-.149.874-.23 1.325-.244.409 0 .832.23 1.133.65.969 1.41 2.211 3.335 3.044 5.07.369.772.437 1.613.205 2.277l-2.02 1.464c-.847.623-2.048.203-2.717-.935z" fill="#FCE29E"/><path d="M217.958 39.597h-13.161c-3.468 0-6.294-2.819-6.294-6.248V22.587c0-3.443 2.84-6.248 6.294-6.248h13.161c3.467 0 6.293 2.819 6.293 6.248v10.748c.014 3.443-2.826 6.262-6.293 6.262zm-211.732 60.6h39.441c3.14 0 5.72 2.548 5.72 5.679v17.187c0 2.873-2.361 5.218-5.256 5.218h-1.01l1.898 7.97-11.932-7.97H5.898c-3.14 0-5.706-2.548-5.706-5.666v-16.386c-.014-3.321 2.716-6.032 6.034-6.032z" fill="#DFEBFD"/><path d="M5.175 112.667h41.12c.56 0 1.024-.461 1.024-1.017 0-.556-.464-1.016-1.024-1.016H5.175c-.56 0-1.024.46-1.024 1.016a1.02 1.02 0 001.024 1.017zm0 4.527h41.12c.56 0 1.024-.461 1.024-1.017 0-.556-.464-1.016-1.024-1.016H5.175c-.56 0-1.024.46-1.024 1.016a1.02 1.02 0 001.024 1.017zm0 4.527h41.12c.56 0 1.024-.461 1.024-1.017 0-.555-.464-1.016-1.024-1.016H5.175c-.56 0-1.024.461-1.024 1.016 0 .57.464 1.017 1.024 1.017zm22.403-16.075h17.461c.67 0 1.215-.542 1.215-1.207 0-.664-.546-1.206-1.215-1.206H27.578c-.669 0-1.215.542-1.215 1.206 0 .665.546 1.207 1.215 1.207zm-15.004 0h10.512a.955.955 0 00.956-.949v-.502a.955.955 0 00-.956-.948H12.574a.954.954 0 00-.956.948v.502c0 .515.437.949.956.949z" fill="#CBE1FD"/><path d="M204.415 108.912l24.819 8.051-14.867-14.38-1.502 3.524-6.389.027-2.061 2.778z" fill="#9EC3F6"/><path d="M229.234 116.963l-19.263-14.543-20.574-4.663 39.837 19.206z" fill="#fff"/><path d="M214.367 102.582l14.867 14.381-9.911-20.141-4.956 5.76z" fill="#fff"/><path d="M58.132 17.166l-23.195 3.28 15.4-10.41.777 3.334 5.639 1.017 1.379 2.779z" fill="#9EC3F6"/><path d="M34.937 20.446l19.304-9.881 18.908-.949-38.212 10.83zm15.399-10.41l-15.4 10.41 11.92-16.28 3.481 5.87zM94.542 55.36c0 3.01-1.024 5.774-2.73 7.984a13.43 13.43 0 01-1.926 2.006 13.154 13.154 0 01-8.518 3.104 13.186 13.186 0 01-10.43-5.096 12.929 12.929 0 01-2.731-7.984c0-7.224 5.898-13.08 13.174-13.08 7.277 0 13.16 5.842 13.16 13.067z" fill="#fff"/><path d="M86.65 61.54c-.04-.04-.067-.08-.108-.108-.15-.122-.3-.19-.915-.284-.314-.054-.737-.109-1.352-.19 0 0-.136-.014-.204-.014-.041 0-.096-.013-.15-.013-.178-.095-.219-.813-.219-1.572v-.177c0-.284.014-.569.027-.826v-.041c.383.027.628.027.628.027.697-.054 1.133-1.925 1.297-3.429 0 0 .342-.827.342-1.721 0-.502-.11-1.03-.45-1.437a1.702 1.702 0 00-.492-.434 1.232 1.232 0 00-.137-.122c-.655-.718-3.304-3.415-5.051-1.857-.041-.149-.615-1.91-3.359-1.328.178-.014 1.393-.136 1.748.352-.055-.027-1.106-.487-1.789-.08-.314.189-.505.582-.614.989v.04l-.041.163v.041c-.082.42-.082.826-.027 1.03.109.42.86 1.694 1.365 1.694.191 0 .396-.068.573-.136-.082.23-.15.475-.204.746-.533 2.494 1.133 4.391 1.993 3.917.56-.298.97.664.97.664-.083 1.83-.588 3.009-.957 3.307-.136.014-.423.054-.791.109 0 0-1.27.135-2.24.555-.013 0-.013 0-.027.014-.218.095-.41.19-.546.298a.775.775 0 00-.177.19.281.281 0 00-.055.081c-.328.61-.655 1.532-.97 2.616a11.155 11.155 0 006.677 2.196c2.758 0 5.27-.99 7.222-2.63-.696-1.531-1.516-2.304-1.966-2.63z" fill="#2B478B"/><path d="M118.529 48.76h-14.977a.941.941 0 01-.942-.936v-.447a.94.94 0 01.942-.935h14.977a.94.94 0 01.942.935v.447a.94.94 0 01-.942.936zm.177 8.349h-15.331a.761.761 0 01-.765-.76.76.76 0 01.765-.758h15.331c.423 0 .765.339.765.759s-.342.759-.765.759zm-6.785 3.578h-8.724a.581.581 0 01-.587-.583v-.352a.58.58 0 01.587-.583h8.724a.58.58 0 01.587.583v.352a.598.598 0 01-.587.583zm17.775 0h-14.089a.74.74 0 01-.737-.732v-.054a.74.74 0 01.737-.732h14.089a.74.74 0 01.737.732v.054a.749.749 0 01-.737.732zm13.161-3.578h-20.096a.761.761 0 01-.765-.76.76.76 0 01.765-.758h20.096c.423 0 .765.339.765.759s-.342.759-.765.759zm-24.151 7.156h-15.331a.761.761 0 01-.765-.759c0-.42.342-.759.765-.759h15.331c.423 0 .765.339.765.76a.76.76 0 01-.765.758zm24.151 0h-20.096a.761.761 0 01-.765-.759c0-.42.342-.759.765-.759h20.096c.423 0 .765.339.765.76a.76.76 0 01-.765.758zm-9.748-15.505h-10.744a.804.804 0 01-.805-.8v-.718c0-.448.368-.8.805-.8h10.744c.451 0 .806.366.806.8v.718c0 .447-.369.8-.806.8z" fill="#fff"/><path d="M119.553 123.266h-10.635a.667.667 0 01-.669-.664v-.312c0-.366.3-.664.669-.664h10.635c.368 0 .669.298.669.664v.312c.013.366-.301.664-.669.664zm.136 4.215h-10.894a.545.545 0 01-.546-.542c0-.298.245-.542.546-.542h10.894c.301 0 .546.244.546.542a.554.554 0 01-.546.542zm-4.833 2.548h-6.198a.408.408 0 01-.409-.406v-.258a.41.41 0 01.409-.407h6.198c.232 0 .41.19.41.407v.258c.014.217-.178.406-.41.406zm12.642 0h-10.02a.516.516 0 01-.519-.515v-.04c0-.285.232-.516.519-.516h10.02c.287 0 .519.231.519.516v.04a.516.516 0 01-.519.515zm9.366-2.548H122.57a.545.545 0 01-.546-.542c0-.298.245-.542.546-.542h14.294c.3 0 .546.244.546.542a.565.565 0 01-.546.542zm-17.175 5.096h-10.894a.545.545 0 01-.546-.542c0-.298.245-.542.546-.542h10.894c.301 0 .546.244.546.542a.554.554 0 01-.546.542zm17.175 0H122.57a.545.545 0 01-.546-.542c0-.298.245-.542.546-.542h14.294c.3 0 .546.244.546.542a.565.565 0 01-.546.542zm-6.936-9.311h-7.645a.575.575 0 01-.573-.569v-.515c0-.312.259-.57.573-.57h7.645c.314 0 .574.258.574.57v.515c0 .311-.26.569-.574.569zM126.611 20.54h-10.635a.667.667 0 01-.669-.663v-.312c0-.366.3-.664.669-.664h10.635c.369 0 .669.298.669.664v.312c0 .366-.3.664-.669.664zm.136 4.23h-10.894a.546.546 0 01-.546-.543c0-.298.246-.542.546-.542h10.894c.301 0 .546.244.546.542a.554.554 0 01-.546.542zm-4.833 2.547h-6.198a.409.409 0 01-.409-.406v-.258a.41.41 0 01.409-.406h6.198c.233 0 .41.19.41.406v.258c.014.217-.177.406-.41.406zm12.642 0h-10.02a.517.517 0 01-.519-.515v-.04c0-.285.232-.515.519-.515h10.02c.287 0 .519.23.519.515v.04a.517.517 0 01-.519.515zm9.366-2.547h-14.294a.546.546 0 01-.546-.543c0-.298.246-.542.546-.542h14.294c.3 0 .546.244.546.542a.564.564 0 01-.546.542zm-6.935-4.23h-7.646a.574.574 0 01-.573-.569v-.515c0-.312.259-.57.573-.57h7.646c.314 0 .573.258.573.57v.515c0 .325-.259.57-.573.57z" fill="#699DEE"/><path d="M136.017 91.875h-11.645a.731.731 0 01-.737-.732v-.353a.73.73 0 01.737-.731h11.645a.73.73 0 01.737.731v.353a.74.74 0 01-.737.732zm.137 4.622h-11.932a.589.589 0 01-.587-.583.59.59 0 01.587-.583h11.932a.59.59 0 01.587.583c.013.312-.26.583-.587.583zm-5.27 2.778h-6.785a.453.453 0 01-.451-.447v-.271c0-.244.205-.447.451-.447h6.785c.246 0 .451.203.451.447v.271a.453.453 0 01-.451.447zm13.83 0h-10.963a.574.574 0 01-.573-.57v-.04c0-.312.259-.57.573-.57h10.963c.314 0 .573.258.573.57v.04c0 .313-.259.57-.573.57zm10.253-2.778h-15.646a.59.59 0 01-.587-.583.59.59 0 01.587-.583h15.646a.59.59 0 01.587.583.598.598 0 01-.587.583zm-18.813 5.571h-11.932a.59.59 0 01-.587-.583c0-.326.273-.583.587-.583h11.932a.59.59 0 01.587.583c.013.311-.26.583-.587.583zm18.813 0h-15.646a.59.59 0 01-.587-.583c0-.326.273-.583.587-.583h15.646a.59.59 0 01.587.583.6.6 0 01-.587.583zm-18.813 2.9h-11.932a.589.589 0 01-.587-.583.59.59 0 01.587-.583h11.932a.59.59 0 01.587.583c.013.312-.26.583-.587.583zm18.813 0h-15.646a.59.59 0 01-.587-.583.59.59 0 01.587-.583h15.646a.59.59 0 01.587.583.598.598 0 01-.587.583zm-7.591-13.093h-8.369a.633.633 0 01-.628-.624v-.556c0-.338.287-.623.628-.623h8.369c.341 0 .628.285.628.623v.556a.633.633 0 01-.628.624zm-38.95-79.915l-.805.584-.819-.57a.984.984 0 01.819-.42c.327 0 .628.163.805.407zm-.805-1.815a2.41 2.41 0 00-1.966 1.016l.519.353a1.81 1.81 0 011.46-.746c.601 0 1.12.285 1.447.745l.519-.365c-.464-.61-1.174-1.003-1.979-1.003zm0-2.671c-1.72 0-3.25.854-4.164 2.155l.519.353a4.47 4.47 0 013.658-1.884c1.488 0 2.826.732 3.632 1.857l.505-.366a5.136 5.136 0 00-4.15-2.115z" fill="#fff"/><path d="M107.621 8.938a3.658 3.658 0 00-2.976 1.518l.518.353a3.031 3.031 0 014.901-.027l.506-.366a3.686 3.686 0 00-2.949-1.478zm-4.547 88.155a5.03 5.03 0 001.079 3.131 5.08 5.08 0 001.652 1.396c.723.393 1.556.61 2.444.61a5.15 5.15 0 002.962-.922c.041-.027.082-.054.123-.094.382-.285.724-.61 1.01-.99a5.116 5.116 0 001.079-3.13c0-2.834-2.321-5.138-5.174-5.138-2.854 0-5.175 2.304-5.175 5.137z" fill="#fff"/><path d="M109.655 100.386l-.478-.42c-.041.014-.082.014-.123.027-.082-.054-.177-.122-.273-.176.027-.19.055-.366.082-.528.068-.556.082-.882.082-.936a4.78 4.78 0 00.423-.04c.478-.109.505-1.735.396-2.576a.553.553 0 00.259-.054c.355-.163.383-.705.383-.705s-.11.19-.26.258c0 0 .601-.827-.095-1.383-.697-.569-1.406-.19-1.816-.176-.887.054-1.474.109-1.761.691-.287.57-.178 2.156.382 2.738.014.055.014.109.027.163.028.203.11.38.219.515a3.763 3.763 0 01-.655 1.532 2.181 2.181 0 00-.478.515l-.014.013c-.273.38-.491.881-.669 1.45v.014c.287.203.614.38.942.515.027.014.041.014.068.027h.014c.041.014.068.027.109.041.082.041.178.068.26.095l.286.081a.397.397 0 00.137.027c.041.014.082.014.123.027h.013c.028 0 .055.014.082.014a.843.843 0 00.178.027h.041c.041 0 .068.013.095.013.055 0 .096.014.137.014.054 0 .109.014.164.014.054 0 .109 0 .15.013h.491c.055 0 .11 0 .164-.013a5.27 5.27 0 001.952-.583c-.314-.515-.696-.908-1.037-1.234z" fill="#699DEE"/><path d="M153.874 126.953c0 1.192.41 2.277 1.079 3.158.218.284.478.555.764.786a5.236 5.236 0 003.372 1.22 5.199 5.199 0 004.123-2.02 5.078 5.078 0 001.079-3.158c0-2.86-2.335-5.178-5.215-5.178a5.197 5.197 0 00-5.202 5.192z" fill="#fff"/><path d="M161.738 129.88c0-.013-.014-.027-.027-.041l-.082-.081a.928.928 0 00-.26-.135h-.013c-.451-.19-1.052-.258-1.052-.258-.163-.027-.3-.041-.368-.054-.178-.136-.41-.691-.451-1.545 0 0 .191-.448.451-.312.409.217 1.174-.664.928-1.83a2.085 2.085 0 00-.095-.339.616.616 0 00.273.068c.232 0 .587-.596.641-.786.055-.203 0-.854-.327-1.044-.314-.189-.806.027-.833.041.164-.217.71-.176.805-.163-1.269-.257-1.542.556-1.556.624-.806-.732-2.048.528-2.348.867-.028.014-.041.041-.068.054a.991.991 0 00-.233.204c-.163.19-.204.433-.204.677 0 .421.163.8.163.8.069.705.274 1.572.601 1.6 0 0 .109 0 .287-.014v.027c0 .122.014.258.014.38v.081c0 .352-.028.691-.096.732h-.068c-.028 0-.096.013-.096.013-.287.041-.491.068-.628.095-.287.041-.355.082-.423.136l-.055.054c-.204.163-.587.515-.928 1.206a5.265 5.265 0 003.372 1.22c1.16 0 2.239-.379 3.113-1.03a5.197 5.197 0 00-.437-1.247z" fill="#FDCD51"/><path d="M153.874 23.007c0 1.193.41 2.277 1.079 3.158.218.285.478.556.764.786a5.236 5.236 0 003.372 1.22c1.161 0 2.239-.38 3.113-1.03a5.343 5.343 0 001.01-.99 5.08 5.08 0 001.079-3.158c0-2.86-2.335-5.177-5.215-5.177a5.196 5.196 0 00-5.202 5.19z" fill="#fff"/><path d="M161.738 25.935c0-.014-.014-.027-.027-.04l-.082-.082a.941.941 0 00-.26-.136h-.013c-.451-.19-1.052-.257-1.052-.257-.163-.027-.3-.04-.368-.055a1.178 1.178 0 01-.137-.176c-.15-.257-.286-.732-.314-1.369 0 0 .191-.447.451-.311.409.216 1.174-.665.928-1.83a1.984 1.984 0 00-.095-.339.63.63 0 00.273.068c.232 0 .587-.597.641-.786.055-.204 0-.854-.327-1.044-.314-.19-.806.027-.833.04.164-.216.71-.176.805-.162-1.269-.258-1.542.556-1.556.623-.806-.731-2.048.53-2.348.868-.028.014-.041.04-.068.054a.984.984 0 00-.233.203c-.163.19-.204.434-.204.678 0 .42.163.8.163.8.069.705.274 1.572.601 1.6 0 0 .109 0 .287-.014v.027c0 .122.014.257.014.38v.08c0 .353-.028.692-.096.733h-.068c-.028 0-.096.013-.096.013-.287.04-.491.068-.628.095-.287.054-.355.081-.423.136-.014.013-.027.04-.055.054-.204.149-.587.515-.928 1.206.055.04.096.081.15.122.014 0 .014.014.027.014l.123.08c.028.028.055.042.082.069.028.013.055.04.082.054l.123.081c.027.014.055.04.082.054.041.027.068.041.109.068.041.027.082.04.123.068h.014l.013.014c.028.013.069.04.096.054.014 0 .027.013.027.013.014.014.041.014.055.027.013.014.041.014.054.027.041.014.082.041.123.055.041.013.082.04.123.054.014.013.041.013.055.027.013 0 .041.014.054.027l.123.04.123.041c.041.014.068.027.109.027h.014c.027 0 .041.014.068.014.123.04.246.068.382.081.055.014.11.027.164.027h.055c.041 0 .068.014.109.014h.041c.041 0 .068.014.096.014h.041c.054 0 .122.013.177.013h.287c1.16 0 2.239-.38 3.112-1.03a3.502 3.502 0 00-.368-1.206zm62.827 202.414L205.807 238h-12.492c-3.017-2.006-18.649-12.592-25.12-20.494-1.365-1.667-6.389-16.102-10.239-27.799.519 1.559 11.277 24.302 14.335 26.891 3.058 2.589 19.154 17.647 23.591 17.485 4.3-.149 27.209-5.381 28.629-5.707.013-.013.027-.013.054-.027z" fill="#FDCD51"/><path d="M262.314 238h-67.647c3.386-1.328 16.369-6.249 29.83-9.624.027 0 .041-.013.068-.013 11.55-2.901 23.455-4.663 29.912-2.02l.041.068L262.314 238z" fill="#D2E3FC"/><path d="M153.342 149.303c1.147-.42 2.744-.691 3.522.596 1.215 2.006-3.29 19.735-3.85 21.958l.328-22.554z" fill="#FDCD51"/><path d="M153.683 139.774l-.382 10.722s2.266.366 3.563-.597c1.297-.962.601-10.26-3.181-10.125z" fill="#FDCD51"/><path d="M108.249 201.852c-6.499 1.328-20.506-3.741-20.506-3.741l2.266-21.673-15.836 18c-8.055-2.982-20.656-10.749-28.137-15.574 19.181-2.074 33.502-20.873 33.502-20.873 13.297 7.156 28.315 11.331 28.315 11.331-.014 12.863.396 32.53.396 32.53z" fill="#CBE1FD"/><path d="M63.647 182.171a2.62 2.62 0 012.662-2.589 2.618 2.618 0 012.608 2.643 2.618 2.618 0 01-2.662 2.589c-1.461-.027-2.622-1.206-2.608-2.643z" fill="#FFDB7D"/></svg>